# xmcd
#
# Track frame offsets:
#	150
#	15627
#	29155
#	44712
#	54932
#	65777
#	79447
#	90912
#	101482
#	114155
#	124605
#	139527
#	155170
#	167410
#	180112
#	193667
#
# Disc length: 2773 seconds
#
# Revision: 0
# Processed by: cddbd v1.5.1PL0 Copyright (c) Steve Scherf et al.
# Submitted via: dBpowerAMP V4.0
#
DISCID=ce0ad310
DTITLE=Garnet Mimms - The Best Of Garnet Mimms: Warm and Soulful
DYEAR=1900
DGENRE=R&B
TTITLE0=Cry Baby
TTITLE1=For Your Precious Love
TTITLE2=Baby Don't You Weep
TTITLE3=Tell Me Baby
TTITLE4=A Quiet Place
TTITLE5=One Girl
TTITLE6=Look Away
TTITLE7=A Little Bit Of Soap
TTITLE8=It Was Easier To Hurt Her
TTITLE9=That Goes To Show You
TTITLE10=I'll Take Good Care Of You
TTITLE11=More Than A Miracle
TTITLE12=As Long As I Have You
TTITLE13=It's Just A Matter Of Time
TTITLE14=It's Been Such A Long Way Home
TTITLE15=My Baby
EXTD=
EXTT0=
EXTT1=
EXTT2=
EXTT3=
EXTT4=
EXTT5=
EXTT6=
EXTT7=
EXTT8=
EXTT9=
EXTT10=
EXTT11=
EXTT12=
EXTT13=
EXTT14=
EXTT15=
PLAYORDER=
